<svg width="28" height="28" viewBox="0 0 28 28" fill="none" xmlns="http://www.w3.org/2000/svg">
<path d="M26 15.0811C25.7898 17.3555 24.9362 19.523 23.5391 21.3301C22.142 23.1371 20.2591 24.5088 18.1109 25.2848C15.9626 26.0608 13.6378 26.2089 11.4084 25.7118C9.17901 25.2147 7.13731 24.0929 5.52219 22.4778C3.90708 20.8627 2.78534 18.821 2.28824 16.5916C1.79114 14.3622 1.93925 12.0374 2.71522 9.88913C3.49119 7.74086 4.86293 5.85801 6.66994 4.46089C8.47695 3.06378 10.6445 2.21019 12.9189 2C11.5873 3.80151 10.9465 6.02113 11.1131 8.25516C11.2797 10.4892 12.2426 12.5892 13.8267 14.1733C15.4108 15.7574 17.5108 16.7203 19.7448 16.8869C21.9789 17.0535 24.1985 16.0252 26 14.6936V15.0811Z" stroke="#00CC96" stroke-width="2.5" stroke-linecap="round" stroke-linejoin="round"/>
</svg>
